<?xml version="1.0" encoding="utf-8"?>
<!-- Generator: Adobe Illustrator 24.0.3, SVG Export Plug-In . SVG Version: 6.00 Build 0)  -->
<svg version="1.1" id="圖層_1" xmlns="http://www.w3.org/2000/svg" xmlns:xlink="http://www.w3.org/1999/xlink" x="0px" y="0px"
	 viewBox="0 0 28.4 28.4" style="enable-background:new 0 0 28.4 28.4;" xml:space="preserve">
<style type="text/css">
	.st0{fill-rule:evenodd;clip-rule:evenodd;}
</style>
<path class="st0" d="M14.2,3C8,3,3,8,3,14.2s5,11.1,11.1,11.1c6.1,0,11.1-5,11.1-11.1S20.3,3,14.2,3L14.2,3z M22.2,18.3
	c-0.7,1.4-1.8,2.6-3.2,3.5l0,0c0.5-1,1-2.2,1.3-3.5H22.2L22.2,18.3z M18.2,18.3c-0.2,0.9-0.6,1.7-1,2.5c-0.6,1-1.2,1.8-2,2.1v-4.6
	H18.2L18.2,18.3z M13.1,18.3V23c-0.7-0.4-1.4-1.1-2-2.1c-0.4-0.7-0.7-1.5-1-2.5L13.1,18.3L13.1,18.3z M8,18.3
	c0.3,1.3,0.7,2.5,1.3,3.5l0,0c-1.3-0.9-2.4-2-3.2-3.5H8L8,18.3z M5.4,16.3c-0.2-0.7-0.2-1.4-0.2-2.1c0-0.7,0.1-1.4,0.2-2.1h2.3
	c-0.1,0.7-0.1,1.4-0.1,2.1c0,0.7,0,1.4,0.1,2.1H5.4L5.4,16.3z M9.8,16.3c-0.1-0.7-0.1-1.4-0.1-2.1c0-0.7,0-1.4,0.1-2.1h3.4v4.2
	L9.8,16.3L9.8,16.3z M15.2,16.3v-4.2h3.4c0.1,0.7,0.1,1.4,0.1,2.1c0,0.7,0,1.4-0.1,2.1H15.2L15.2,16.3z M20.7,16.3
	c0.1-0.7,0.1-1.4,0.1-2.1c0-0.7,0-1.4-0.1-2.1H23c0.2,0.7,0.2,1.4,0.2,2.1c0,0.7-0.1,1.4-0.2,2.1H20.7L20.7,16.3z M6.2,10
	C6.9,8.6,8,7.4,9.3,6.5l0,0c-0.5,1-1,2.2-1.3,3.5H6.2L6.2,10z M10.2,10c0.2-0.9,0.6-1.7,1-2.5c0.6-1,1.2-1.8,2-2.1V10H10.2L10.2,10z
	 M15.2,10V5.4c0.7,0.4,1.4,1.1,2,2.1c0.4,0.7,0.7,1.5,1,2.5H15.2L15.2,10z M20.3,10C20,8.7,19.6,7.5,19,6.5l0,0
	c1.3,0.9,2.4,2,3.2,3.5L20.3,10L20.3,10z"/>
</svg>
