<?xml version="1.0" encoding="utf-8"?>
<!-- Generator: Adobe Illustrator 16.0.0, SVG Export Plug-In . SVG Version: 6.00 Build 0)  -->
<!DOCTYPE svg PUBLIC "-//W3C//DTD SVG 1.1//EN" "http://www.w3.org/Graphics/SVG/1.1/DTD/svg11.dtd">
<svg version="1.1" id="圖層_1" xmlns="http://www.w3.org/2000/svg" xmlns:xlink="http://www.w3.org/1999/xlink" x="0px" y="0px"
	 width="28.35px" height="28.35px" viewBox="0 0 28.35 28.35" enable-background="new 0 0 28.35 28.35" xml:space="preserve">
<g id="Livello_1_1_">
</g>
<g>
	<path d="M7.534,19.935v0.723c2.436-3.715,5.185-5.693,8.641-5.764v4.32c0,0.793,0.738,1.443,1.646,1.443
		c0.523,0,0.975-0.229,1.27-0.564c2.787-2.924,8.607-8.799,8.607-8.799s-5.822-5.878-8.607-8.84
		c-0.301-0.294-0.746-0.522-1.27-0.522c-0.908,0-1.646,0.643-1.646,1.442v4.319C9.464,7.694,7.534,14.707,7.534,19.935z"/>
	<path d="M3.213,26.419H23.38c0.795,0,1.438-0.645,1.438-1.443v-8.707c-0.955,0.973-1.963,2.006-2.881,2.947v4.318H4.653V6.253
		h10.083v-2.88H3.213c-0.797,0-1.441,0.645-1.441,1.439v20.163C1.772,25.775,2.416,26.419,3.213,26.419z"/>
</g>
</svg>
