<?xml version="1.0" encoding="utf-8"?>
<!-- Generator: Adobe Illustrator 16.0.0, SVG Export Plug-In . SVG Version: 6.00 Build 0)  -->
<!DOCTYPE svg PUBLIC "-//W3C//DTD SVG 1.1//EN" "http://www.w3.org/Graphics/SVG/1.1/DTD/svg11.dtd">
<svg version="1.1" id="圖層_1" xmlns="http://www.w3.org/2000/svg" xmlns:xlink="http://www.w3.org/1999/xlink" x="0px" y="0px"
	 width="28.35px" height="28.35px" viewBox="0 0 28.35 28.35" enable-background="new 0 0 28.35 28.35" xml:space="preserve">
<g id="Livello_1_1_">
</g>
<g>
	<path d="M18.572,7.344V3.693c0-0.674-0.624-1.217-1.391-1.217c-0.444,0-0.818,0.193-1.074,0.44
		c-2.354,2.503-7.272,7.471-7.272,7.471s4.918,4.965,7.272,7.435c0.251,0.282,0.63,0.477,1.074,0.477
		c0.767,0,1.391-0.547,1.391-1.219v-3.65c2.92,0.056,5.244,1.729,7.303,4.869V17.69C25.874,13.273,24.243,7.344,18.572,7.344z"/>
	<path d="M3.939,25.874h20.475c0.809,0,1.461-0.653,1.461-1.463v-5.029c-1.128,0.054-1.412-0.003-2.92,0.026l-0.004,3.54H5.401V5.4
		h6.411V2.476H3.939c-0.81,0-1.463,0.655-1.463,1.462v20.474C2.476,25.221,3.129,25.874,3.939,25.874z"/>
</g>
</svg>
