<?xml version="1.0" encoding="utf-8"?>
<!-- Generator: Adobe Illustrator 23.1.1, SVG Export Plug-In . SVG Version: 6.00 Build 0)  -->
<svg version="1.1" xmlns="http://www.w3.org/2000/svg" xmlns:xlink="http://www.w3.org/1999/xlink" x="0px" y="0px"
	 viewBox="0 0 265 259" style="enable-background:new 0 0 265 259;" xml:space="preserve">
<style type="text/css">
	.st0{display:none;}
	.st1{display:inline;}
	.st2{fill:url(#SVGID_1_);}
	.st3{opacity:0.6849;}
	.st4{fill:url(#SVGID_2_);}
	.st5{fill:url(#SVGID_3_);}
	.st6{fill:url(#SVGID_4_);}
	.st7{fill:url(#SVGID_5_);}
	.st8{fill:url(#SVGID_6_);}
	.st9{fill:none;stroke:url(#SVGID_7_);stroke-miterlimit:10;}
	.st10{opacity:0.398;fill:url(#SVGID_8_);}
	.st11{fill:url(#SVGID_9_);}
	.st12{opacity:0.2747;fill:url(#SVGID_10_);}
	.st13{opacity:0.2747;fill:url(#SVGID_11_);}
	.st14{opacity:0.2747;fill:none;stroke:url(#SVGID_12_);stroke-miterlimit:10;}
	.st15{fill:url(#SVGID_13_);}
	.st16{opacity:0.3578;fill:url(#SVGID_14_);}
	.st17{fill:url(#SVGID_15_);}
</style>
<g id="圖層_1" class="st0">
	<g class="st1">
		
			<linearGradient id="SVGID_1_" gradientUnits="userSpaceOnUse" x1="949.2238" y1="-12.0411" x2="1190.6022" y2="-12.0411" gradientTransform="matrix(-0.7461 0.664 0.6579 0.7466 913.7185 -558.0085)">
			<stop  offset="0" style="stop-color:#FFE10A"/>
			<stop  offset="0.1572" style="stop-color:#FBE00B"/>
			<stop  offset="0.3004" style="stop-color:#F0DC0F"/>
			<stop  offset="0.4382" style="stop-color:#DED615"/>
			<stop  offset="0.5729" style="stop-color:#C4CD1D"/>
			<stop  offset="0.7051" style="stop-color:#A2C228"/>
			<stop  offset="0.8354" style="stop-color:#79B435"/>
			<stop  offset="0.9621" style="stop-color:#49A345"/>
			<stop  offset="1" style="stop-color:#399E4A"/>
		</linearGradient>
		<path class="st2" d="M214.9,68.6c19.3,0.3,40.7,15,41.7,34.9c1.1,24.8-19.8,47.6-44.4,48c-11.3,0.2-23.2-1.1-33.4,3.8
			c-10,4.8-16.5,14.7-23,23.7c-11.1,15.4-24.1,29.8-40.6,39c-36.5,20.3-82.2,4.9-93.8-36.6c-6.7-24,0.5-49.5,10.4-71.5
			c18.4-40.7,78.8-93.9,121.8-52.5c7.2,6.9,13.2,16.3,22.9,18.5c9.9,2.2,19.5-3.8,29.3-6.3C208.8,68.8,211.8,68.5,214.9,68.6z"/>
		<g class="st3">
			
				<linearGradient id="SVGID_2_" gradientUnits="userSpaceOnUse" x1="80.1156" y1="322.7208" x2="-88.2695" y2="164.4938" gradientTransform="matrix(0.9813 -0.1925 -0.1925 -0.9813 134.0236 438.0573)">
				<stop  offset="0" style="stop-color:#FFDA00"/>
				<stop  offset="1" style="stop-color:#009344"/>
			</linearGradient>
			<path class="st4" d="M136.2,106.7c17.8-1,25.7-13.7,39.6-22.5c2.6-1.6,5.6-3.2,8.6-2.4c4.2,1.1,5.1,5.5,7.7,8.2
				c2.8,2.9,7.2,5.7,11,6.9c8.1,2.5,16.6-1.1,24.7-3.5c8.1-2.4,18.3-3,23.5,3.6c4.7,5.9,2.8,15.1-2.3,20.7
				c-5.1,5.6-12.4,8.5-19.6,11c-7.1,2.5-14.5,5.1-20,10.3c-13,12.3-11.4,35.7-26.1,45.9c-5.4,3.8-12.2,4.9-18.7,6.1
				c-13.4,2.3-25.8,1.9-39.2,3.2c-12.3,1.2-25.2,5.3-34.4,13.7c-9.4,8.6-15.4,21.7-27.4,25.9c-9.4,3.3-20.6-0.4-27-8.1
				c-6.4-7.7-8.2-18.6-5.6-28.3c2.4-9,8.2-16.9,10.2-26c2.3-10.8-1-22-3-32.9c-2-10.9-2.4-23.3,4.5-31.9
				C53.6,93.3,75.1,89,89.9,95.4c11.8,5.1,26.1,10.1,39,11.2C131.3,106.8,133.8,106.9,136.2,106.7z"/>
		</g>
		
			<linearGradient id="SVGID_3_" gradientUnits="userSpaceOnUse" x1="86.35" y1="272.1486" x2="118.3519" y2="272.1486" gradientTransform="matrix(0.9997 2.702129e-02 2.702129e-02 -0.9997 59.9478 308.5938)">
			<stop  offset="0" style="stop-color:#39B44A"/>
			<stop  offset="1" style="stop-color:#FFDA00"/>
		</linearGradient>
		<path class="st5" d="M157.2,29c4.4-5.6,12.2-8.5,19-5.3c8.8,4.1,11.8,15.8,7.3,24.1c-9.7,17.9-35.1,4.2-29-13.8
			C155.2,32.2,156.1,30.5,157.2,29z"/>
		
			<linearGradient id="SVGID_4_" gradientUnits="userSpaceOnUse" x1="29.1907" y1="235.2567" x2="64.2577" y2="235.2567" gradientTransform="matrix(0.9999 -8.912248e-03 -8.912248e-03 -0.9999 -4.5512 400.3501)">
			<stop  offset="0" style="stop-color:#FFDA00"/>
			<stop  offset="1" style="stop-color:#39B44A"/>
		</linearGradient>
		<path class="st6" d="M18.2,158.1c2.3-4,6.5-6.1,10.3-4.1c4.9,2.6,6.8,10.5,4.5,16.3c-5,12.5-19.1,3.7-16.2-8.8
			C17.2,160.3,17.6,159.1,18.2,158.1z"/>
		
			<linearGradient id="SVGID_5_" gradientUnits="userSpaceOnUse" x1="170.622" y1="-90.0844" x2="189.4353" y2="-90.0844" gradientTransform="matrix(0.9194 0.3932 0.3932 -0.9194 20.4747 62.9772)">
			<stop  offset="0" style="stop-color:#FFDA00"/>
			<stop  offset="1" style="stop-color:#39B44A"/>
		</linearGradient>
		<path class="st7" d="M141.3,208.7c2-1.4,4.5-1.6,5.9,0.2c1.8,2.3,1.1,6.6-1.3,9c-5.1,5.1-10.2-2.3-6.1-7.8
			C140.3,209.5,140.8,209,141.3,208.7z"/>
		
			<linearGradient id="SVGID_6_" gradientUnits="userSpaceOnUse" x1="141.6359" y1="164.8983" x2="153.5091" y2="164.8983" gradientTransform="matrix(0.9997 2.702129e-02 2.702129e-02 -0.9997 59.9478 308.5938)">
			<stop  offset="0" style="stop-color:#39B44A"/>
			<stop  offset="1" style="stop-color:#FFDA00"/>
		</linearGradient>
		<path class="st8" d="M207.3,143.9c1.6-2.1,4.5-3.1,7.1-2c3.3,1.5,4.4,5.9,2.7,8.9c-3.6,6.6-13,1.6-10.8-5.1
			C206.6,145.1,206.9,144.5,207.3,143.9z"/>
		
			<linearGradient id="SVGID_7_" gradientUnits="userSpaceOnUse" x1="6.2586" y1="96.3257" x2="16.7506" y2="96.3257" gradientTransform="matrix(0.9429 -0.333 0.333 0.9429 -31.484 50.8786)">
			<stop  offset="0" style="stop-color:#39B44A"/>
			<stop  offset="1" style="stop-color:#FFDA00"/>
		</linearGradient>
		<path class="st9" d="M7.8,134.8c1.3-1.7,3.6-2.5,5.6-1.6c2.6,1.2,3.5,4.7,2.1,7.1c-2.9,5.3-10.3,1.2-8.6-4.1
			C7.1,135.7,7.4,135.2,7.8,134.8z"/>
		
			<linearGradient id="SVGID_8_" gradientUnits="userSpaceOnUse" x1="81.7407" y1="111.1348" x2="165.4955" y2="111.1348" gradientTransform="matrix(0.9429 -0.333 0.333 0.9429 -31.484 50.8786)">
			<stop  offset="0" style="stop-color:#8CC53F"/>
			<stop  offset="1" style="stop-color:#FFDA00"/>
		</linearGradient>
		<path class="st10" d="M99.5,150.1c15.5,10.5,37.2,11.3,51.6-2.2c18.5-17.3,16.6-48.8-1.3-65.9c-38.7-36.8-90.7,17.8-61.1,57.8
			C91.8,143.9,95.4,147.3,99.5,150.1z"/>
	</g>
</g>
<g id="圖層_2">
	<g>
		
			<linearGradient id="SVGID_9_" gradientUnits="userSpaceOnUse" x1="906.2286" y1="27.8032" x2="1148.8987" y2="27.8032" gradientTransform="matrix(-0.9358 -0.3492 0.3433 -0.934 1071.3195 519.2084)">
			<stop  offset="0" style="stop-color:#FF6143"/>
			<stop  offset="0.5559" style="stop-color:#FFB614"/>
			<stop  offset="1" style="stop-color:#FFDA00"/>
		</linearGradient>
		<path class="st11" d="M227.1,177.4c9.7-12,17.9-26.8,18.7-44.3c1.6-37.6-30.6-69.7-59.7-58.6c-9.8,3.8-19.6,9.4-30.4,7.7
			c-10.6-1.6-20-9.9-29.2-17.3c-15.7-12.6-32.6-23.5-50.5-27.5C36.3,28.5,3,61.2,9.4,109.7c3.7,28.1,20.1,52.9,37.4,73
			c23.9,27.6,54.1,44,85.6,44.8C168.9,228.4,203.7,206.5,227.1,177.4z"/>
		
			<linearGradient id="SVGID_10_" gradientUnits="userSpaceOnUse" x1="897.5389" y1="14.4607" x2="1140.209" y2="14.4607" gradientTransform="matrix(-0.9358 -0.3492 0.3433 -0.934 1071.3195 519.2084)">
			<stop  offset="0" style="stop-color:#FF6143"/>
			<stop  offset="0.5559" style="stop-color:#FFB614"/>
			<stop  offset="1" style="stop-color:#FFDA00"/>
		</linearGradient>
		<path class="st12" d="M230.6,192.9c9.7-12,17.9-26.8,18.7-44.3c1.6-37.6-30.6-69.7-59.7-58.6c-9.8,3.8-19.6,9.4-30.4,7.7
			c-10.6-1.6-20-9.9-29.2-17.3C114.3,67.9,97.3,57,79.4,52.9C39.9,44,6.5,76.7,13,125.2c3.7,28.1,20.1,52.9,37.4,73
			c23.9,27.6,54.1,44,85.6,44.8C172.5,243.9,207.3,222,230.6,192.9z"/>
		
			<linearGradient id="SVGID_11_" gradientUnits="userSpaceOnUse" x1="894.8026" y1="16.0853" x2="1137.4727" y2="16.0853" gradientTransform="matrix(-0.9358 -0.3492 0.3433 -0.934 1071.3195 519.2084)">
			<stop  offset="0" style="stop-color:#FF6143"/>
			<stop  offset="0.5559" style="stop-color:#FFB614"/>
			<stop  offset="1" style="stop-color:#FFDA00"/>
		</linearGradient>
		<path class="st13" d="M233.7,192.4c9.7-12,17.9-26.8,18.7-44.3c1.6-37.6-30.6-69.7-59.7-58.6c-9.8,3.8-19.6,9.4-30.4,7.7
			c-10.6-1.6-20-9.9-29.2-17.3c-15.7-12.6-32.6-23.5-50.5-27.5C43,43.5,9.6,76.1,16.1,124.7c3.7,28.1,20.1,52.9,37.4,73
			c23.9,27.6,54.1,44,85.6,44.8C175.6,243.3,210.4,221.5,233.7,192.4z"/>
		
			<linearGradient id="SVGID_12_" gradientUnits="userSpaceOnUse" x1="197.26" y1="241.1246" x2="19.9072" y2="74.4709" gradientTransform="matrix(0.9222 -0.3868 0.3868 0.9222 -37.9328 19.9005)">
			<stop  offset="0" style="stop-color:#FF6143"/>
			<stop  offset="0.5559" style="stop-color:#FFB614"/>
			<stop  offset="1" style="stop-color:#FFDA00"/>
		</linearGradient>
		<path class="st14" d="M231.2,166.5c9.7-12,17.9-26.8,18.7-44.3c1.6-37.6-30.6-69.7-59.7-58.6c-9.8,3.8-19.6,9.4-30.4,7.7
			c-10.6-1.6-20-9.9-29.2-17.3C114.9,41.4,97.9,30.5,80,26.5C40.4,17.6,7.1,50.2,13.5,98.8c3.7,28.1,20.1,52.9,37.4,73
			c23.9,27.6,54.1,44,85.6,44.8C173,217.4,207.8,195.6,231.2,166.5z"/>
		<g>
			
				<linearGradient id="SVGID_13_" gradientUnits="userSpaceOnUse" x1="173.125" y1="372.8264" x2="33.7233" y2="241.8343" gradientTransform="matrix(0.9844 -0.1756 0.1756 0.9844 -15.6585 -128.0628)">
				<stop  offset="0" style="stop-color:#FF6143"/>
				<stop  offset="0.5559" style="stop-color:#FFB614"/>
				<stop  offset="1" style="stop-color:#FFDA00"/>
			</linearGradient>
			<path class="st15" d="M163.5,207.1c10.9-16.3,15.7-43.5,35.9-48.1c19.3-4.4,48.7,14.1,60-11.3c6.7-15.2-0.8-33.1-11.6-44.9
				c-9-9.8-20.3-14.7-31.2-19.6C205,78,194.1,70.6,184.4,61c-9.2-9.2-18.2-19.9-29.8-24.1c-10.7-3.9-21.6-0.7-29.4,7.2
				c-22.6,22.9-13,81.6-44.3,93.6c-14.1,5.4-32.1-3.8-44.7,5.4c-8,5.8-12.2,18.5-11.5,31.7c1,19.9,12.6,41.7,27.1,53.5
				c24.5,19.9,55,19.4,79.2,7.6c12.1-5.9,23-15.5,31.5-27.3C162.8,208.1,163.2,207.7,163.5,207.1z"/>
		</g>
		
			<linearGradient id="SVGID_14_" gradientUnits="userSpaceOnUse" x1="31.6158" y1="140.1724" x2="109.8129" y2="140.1724" gradientTransform="matrix(0.9222 -0.3868 0.3868 0.9222 -37.9328 19.9005)">
			<stop  offset="0" style="stop-color:#FF6143"/>
			<stop  offset="0.5559" style="stop-color:#FFB614"/>
			<stop  offset="1" style="stop-color:#FFDA00"/>
		</linearGradient>
		<path class="st16" d="M64.2,162.1c15.8,11.7,36.4,12.5,48.5-2.8c15.5-19.6,10.2-55.2-8.7-74.3C63.4,43.8,20.4,105.6,53,150.6
			C56.2,155.1,60.1,159,64.2,162.1z"/>
		
			<linearGradient id="SVGID_15_" gradientUnits="userSpaceOnUse" x1="179.4019" y1="141.3445" x2="190.4875" y2="141.3445" gradientTransform="matrix(0.9222 -0.3868 0.3868 0.9222 -37.9328 19.9005)">
			<stop  offset="0" style="stop-color:#FF6143"/>
			<stop  offset="0.5559" style="stop-color:#FFB614"/>
			<stop  offset="1" style="stop-color:#FFDA00"/>
		</linearGradient>
		<path class="st17" d="M184.8,84.4c2.2,1.7,5.2,1.8,6.9-0.4c2.2-2.8,1.4-7.8-1.2-10.5c-5.8-5.9-11.9,2.9-7.2,9.3
			C183.7,83.4,184.3,84,184.8,84.4z"/>
	</g>
</g>
</svg>
