<?xml version="1.0" encoding="utf-8"?>
<!-- Generator: Adobe Illustrator 23.1.1, SVG Export Plug-In . SVG Version: 6.00 Build 0)  -->
<svg version="1.1" xmlns="http://www.w3.org/2000/svg" xmlns:xlink="http://www.w3.org/1999/xlink" x="0px" y="0px"
	 viewBox="0 0 265 259" style="enable-background:new 0 0 265 259;" xml:space="preserve">
<style type="text/css">
	.st0{fill:url(#SVGID_1_);}
	.st1{opacity:0.6849;}
	.st2{fill:url(#SVGID_2_);}
	.st3{fill:url(#SVGID_3_);}
	.st4{fill:url(#SVGID_4_);}
	.st5{display:none;}
	.st6{display:inline;}
	.st7{fill:url(#SVGID_5_);}
	.st8{opacity:0.2747;fill:url(#SVGID_6_);}
	.st9{opacity:0.2747;fill:url(#SVGID_7_);}
	.st10{opacity:0.2747;fill:none;stroke:url(#SVGID_8_);stroke-miterlimit:10;}
	.st11{fill:url(#SVGID_9_);}
	.st12{opacity:0.3578;fill:url(#SVGID_10_);}
	.st13{fill:url(#SVGID_11_);}
</style>
<g id="圖層_1">
	<g>
		
			<linearGradient id="SVGID_1_" gradientUnits="userSpaceOnUse" x1="945.5787" y1="-14.1886" x2="1201.7443" y2="-14.1886" gradientTransform="matrix(-0.7461 0.664 0.6579 0.7466 913.7185 -558.0085)">
			<stop  offset="0" style="stop-color:#FFE10A"/>
			<stop  offset="0.113" style="stop-color:#D5D318"/>
			<stop  offset="0.2793" style="stop-color:#9EC029"/>
			<stop  offset="0.4339" style="stop-color:#72B137"/>
			<stop  offset="0.5719" style="stop-color:#53A742"/>
			<stop  offset="0.6883" style="stop-color:#40A048"/>
			<stop  offset="0.7691" style="stop-color:#399E4A"/>
		</linearGradient>
		<path class="st0" d="M216.3,61.3c19.8,0.4,41.7,17,42.7,39.6c1.2,28.1-20.3,53.9-45.5,54.4c-11.6,0.2-23.8-1.2-34.2,4.3
			c-10.2,5.5-16.9,16.6-23.5,26.8c-11.3,17.4-24.7,33.8-41.6,44.2c-37.4,23-84.2,5.5-96.1-41.5c-6.9-27.2,0.5-56.1,10.7-81
			C47.6,62,109.4,1.7,153.5,48.6c7.4,7.8,13.5,18.5,23.5,21c10.1,2.5,20-4.4,30-7.2C210,61.6,213.1,61.2,216.3,61.3z"/>
		<g class="st1">
			
				<linearGradient id="SVGID_2_" gradientUnits="userSpaceOnUse" x1="78.8294" y1="323.0692" x2="-102.3946" y2="152.7778" gradientTransform="matrix(0.9813 -0.1925 -0.1925 -0.9813 134.0236 438.0573)">
				<stop  offset="0" style="stop-color:#FFDA00"/>
				<stop  offset="1" style="stop-color:#009344"/>
			</linearGradient>
			<path class="st2" d="M135.6,104.5c18.3-1.1,26.3-15.6,40.6-25.4c2.7-1.8,5.8-3.6,8.8-2.7c4.3,1.2,5.2,6.2,7.9,9.3
				c2.9,3.3,7.4,6.4,11.3,7.8c8.2,2.9,17-1.3,25.2-4c8.3-2.7,18.7-3.4,24.1,4.1c4.8,6.7,2.8,17.1-2.3,23.5
				c-5.2,6.4-12.7,9.6-20,12.5c-7.3,2.9-14.9,5.8-20.5,11.7c-13.3,13.9-11.7,40.5-26.8,52c-5.6,4.3-12.4,5.6-19.1,6.9
				c-13.8,2.6-26.4,2.1-40.1,3.7c-12.6,1.4-25.8,6-35.3,15.5c-9.6,9.7-15.8,24.6-28,29.4c-9.6,3.8-21.1-0.5-27.6-9.2
				c-6.5-8.7-8.4-21.1-5.7-32.1c2.5-10.2,8.4-19.1,10.4-29.5c2.4-12.3-1-24.9-3.1-37.3c-2.1-12.4-2.5-26.4,4.6-36.2
				c11-15.1,33-20,48.2-12.8c12.1,5.8,26.7,11.4,39.9,12.7C130.7,104.6,133.1,104.7,135.6,104.5z"/>
		</g>
		
			<linearGradient id="SVGID_3_" gradientUnits="userSpaceOnUse" x1="157.3778" y1="101.0751" x2="177.2075" y2="101.0751" gradientTransform="matrix(0.9997 2.702624e-02 2.277262e-02 -0.8427 61.0702 267.1208)">
			<stop  offset="0" style="stop-color:#39B44A"/>
			<stop  offset="1" style="stop-color:#FFDA00"/>
		</linearGradient>
		<path class="st3" d="M222.9,180.5c2.7-3.2,7.5-4.9,11.8-3c5.4,2.4,7.3,9.2,4.6,13.9c-6,10.3-21.7,2.3-18-8.1
			C221.6,182.3,222.2,181.4,222.9,180.5z"/>
	</g>
	<linearGradient id="SVGID_4_" gradientUnits="userSpaceOnUse" x1="-115.5691" y1="-5" x2="-81.5691" y2="-5">
		<stop  offset="0" style="stop-color:#FFE10A"/>
		<stop  offset="0.113" style="stop-color:#D5D318"/>
		<stop  offset="0.2793" style="stop-color:#9EC029"/>
		<stop  offset="0.4339" style="stop-color:#72B137"/>
		<stop  offset="0.5719" style="stop-color:#53A742"/>
		<stop  offset="0.6883" style="stop-color:#40A048"/>
		<stop  offset="0.7691" style="stop-color:#399E4A"/>
	</linearGradient>
	<rect x="-119" y="-20" class="st4" width="34" height="30"/>
</g>
<g id="圖層_2" class="st5">
	<g class="st6">
		
			<linearGradient id="SVGID_5_" gradientUnits="userSpaceOnUse" x1="906.2286" y1="27.8032" x2="1148.8987" y2="27.8032" gradientTransform="matrix(-0.9358 -0.3492 0.3433 -0.934 1071.3195 519.2084)">
			<stop  offset="0" style="stop-color:#FF6143"/>
			<stop  offset="0.5559" style="stop-color:#FFB614"/>
			<stop  offset="1" style="stop-color:#FFDA00"/>
		</linearGradient>
		<path class="st7" d="M227.1,177.4c9.7-12,17.9-26.8,18.7-44.3c1.6-37.6-30.6-69.7-59.7-58.6c-9.8,3.8-19.6,9.4-30.4,7.7
			c-10.6-1.6-20-9.9-29.2-17.3c-15.7-12.6-32.6-23.5-50.5-27.5C36.3,28.5,3,61.2,9.4,109.7c3.7,28.1,20.1,52.9,37.4,73
			c23.9,27.6,54.1,44,85.6,44.8C168.9,228.4,203.7,206.5,227.1,177.4z"/>
		
			<linearGradient id="SVGID_6_" gradientUnits="userSpaceOnUse" x1="897.5389" y1="14.4607" x2="1140.209" y2="14.4607" gradientTransform="matrix(-0.9358 -0.3492 0.3433 -0.934 1071.3195 519.2084)">
			<stop  offset="0" style="stop-color:#FF6143"/>
			<stop  offset="0.5559" style="stop-color:#FFB614"/>
			<stop  offset="1" style="stop-color:#FFDA00"/>
		</linearGradient>
		<path class="st8" d="M230.6,192.9c9.7-12,17.9-26.8,18.7-44.3c1.6-37.6-30.6-69.7-59.7-58.6c-9.8,3.8-19.6,9.4-30.4,7.7
			c-10.6-1.6-20-9.9-29.2-17.3C114.3,67.9,97.3,57,79.4,52.9C39.9,44,6.5,76.7,13,125.2c3.7,28.1,20.1,52.9,37.4,73
			c23.9,27.6,54.1,44,85.6,44.8C172.5,243.9,207.3,222,230.6,192.9z"/>
		
			<linearGradient id="SVGID_7_" gradientUnits="userSpaceOnUse" x1="894.8026" y1="16.0853" x2="1137.4727" y2="16.0853" gradientTransform="matrix(-0.9358 -0.3492 0.3433 -0.934 1071.3195 519.2084)">
			<stop  offset="0" style="stop-color:#FF6143"/>
			<stop  offset="0.5559" style="stop-color:#FFB614"/>
			<stop  offset="1" style="stop-color:#FFDA00"/>
		</linearGradient>
		<path class="st9" d="M233.7,192.4c9.7-12,17.9-26.8,18.7-44.3c1.6-37.6-30.6-69.7-59.7-58.6c-9.8,3.8-19.6,9.4-30.4,7.7
			c-10.6-1.6-20-9.9-29.2-17.3c-15.7-12.6-32.6-23.5-50.5-27.5C43,43.5,9.6,76.1,16.1,124.7c3.7,28.1,20.1,52.9,37.4,73
			c23.9,27.6,54.1,44,85.6,44.8C175.6,243.3,210.4,221.5,233.7,192.4z"/>
		
			<linearGradient id="SVGID_8_" gradientUnits="userSpaceOnUse" x1="197.26" y1="241.1246" x2="19.9072" y2="74.4709" gradientTransform="matrix(0.9222 -0.3868 0.3868 0.9222 -37.9328 19.9005)">
			<stop  offset="0" style="stop-color:#FF6143"/>
			<stop  offset="0.5559" style="stop-color:#FFB614"/>
			<stop  offset="1" style="stop-color:#FFDA00"/>
		</linearGradient>
		<path class="st10" d="M231.2,166.5c9.7-12,17.9-26.8,18.7-44.3c1.6-37.6-30.6-69.7-59.7-58.6c-9.8,3.8-19.6,9.4-30.4,7.7
			c-10.6-1.6-20-9.9-29.2-17.3C114.9,41.4,97.9,30.5,80,26.5C40.4,17.6,7.1,50.2,13.5,98.8c3.7,28.1,20.1,52.9,37.4,73
			c23.9,27.6,54.1,44,85.6,44.8C173,217.4,207.8,195.6,231.2,166.5z"/>
		<g>
			
				<linearGradient id="SVGID_9_" gradientUnits="userSpaceOnUse" x1="173.125" y1="372.8264" x2="33.7233" y2="241.8343" gradientTransform="matrix(0.9844 -0.1756 0.1756 0.9844 -15.6585 -128.0628)">
				<stop  offset="0" style="stop-color:#FF6143"/>
				<stop  offset="0.5559" style="stop-color:#FFB614"/>
				<stop  offset="1" style="stop-color:#FFDA00"/>
			</linearGradient>
			<path class="st11" d="M163.5,207.1c10.9-16.3,15.7-43.5,35.9-48.1c19.3-4.4,48.7,14.1,60-11.3c6.7-15.2-0.8-33.1-11.6-44.9
				c-9-9.8-20.3-14.7-31.2-19.6C205,78,194.1,70.6,184.4,61c-9.2-9.2-18.2-19.9-29.8-24.1c-10.7-3.9-21.6-0.7-29.4,7.2
				c-22.6,22.9-13,81.6-44.3,93.6c-14.1,5.4-32.1-3.8-44.7,5.4c-8,5.8-12.2,18.5-11.5,31.7c1,19.9,12.6,41.7,27.1,53.5
				c24.5,19.9,55,19.4,79.2,7.6c12.1-5.9,23-15.5,31.5-27.3C162.8,208.1,163.2,207.7,163.5,207.1z"/>
		</g>
		
			<linearGradient id="SVGID_10_" gradientUnits="userSpaceOnUse" x1="31.6158" y1="140.1724" x2="109.8129" y2="140.1724" gradientTransform="matrix(0.9222 -0.3868 0.3868 0.9222 -37.9328 19.9005)">
			<stop  offset="0" style="stop-color:#FF6143"/>
			<stop  offset="0.5559" style="stop-color:#FFB614"/>
			<stop  offset="1" style="stop-color:#FFDA00"/>
		</linearGradient>
		<path class="st12" d="M64.2,162.1c15.8,11.7,36.4,12.5,48.5-2.8c15.5-19.6,10.2-55.2-8.7-74.3C63.4,43.8,20.4,105.6,53,150.6
			C56.2,155.1,60.1,159,64.2,162.1z"/>
		
			<linearGradient id="SVGID_11_" gradientUnits="userSpaceOnUse" x1="179.4019" y1="141.3445" x2="190.4875" y2="141.3445" gradientTransform="matrix(0.9222 -0.3868 0.3868 0.9222 -37.9328 19.9005)">
			<stop  offset="0" style="stop-color:#FF6143"/>
			<stop  offset="0.5559" style="stop-color:#FFB614"/>
			<stop  offset="1" style="stop-color:#FFDA00"/>
		</linearGradient>
		<path class="st13" d="M184.8,84.4c2.2,1.7,5.2,1.8,6.9-0.4c2.2-2.8,1.4-7.8-1.2-10.5c-5.8-5.9-11.9,2.9-7.2,9.3
			C183.7,83.4,184.3,84,184.8,84.4z"/>
	</g>
</g>
</svg>
