<?xml version="1.0" encoding="utf-8"?>
<!-- Generator: Adobe Illustrator 16.0.0, SVG Export Plug-In . SVG Version: 6.00 Build 0)  -->
<!DOCTYPE svg PUBLIC "-//W3C//DTD SVG 1.1//EN" "http://www.w3.org/Graphics/SVG/1.1/DTD/svg11.dtd">
<svg version="1.1" id="圖層_1" xmlns="http://www.w3.org/2000/svg" xmlns:xlink="http://www.w3.org/1999/xlink" x="0px" y="0px"
	 width="28.35px" height="28.35px" viewBox="0 0 28.35 28.35" enable-background="new 0 0 28.35 28.35" xml:space="preserve">
<path fill="#FFFFFF" d="M13.942,17.878c-0.52-0.66-0.975-0.986-2.104-1.096c-0.204-0.039-0.353-0.215-0.353-0.424
	c0-0.154,0.502-0.613,0.496-0.617c0.521-0.525,0.8-1.375,0.8-2.031c0-1.017-0.901-1.857-2.091-1.857
	c-1.213,0-2.091,0.841-2.091,1.857c0,0.66,0.274,1.516,0.794,2.039c0,0,0.502,0.455,0.502,0.609c0,0.219-0.167,0.404-0.391,0.432
	c-1.105,0.111-1.551,0.438-2.066,1.088c-0.145,0.189-0.229,0.566-0.232,0.766v0.875c0,0.385,0.32,0.695,0.715,0.695h5.539
	c0.395,0,0.715-0.311,0.715-0.695v-0.875C14.17,18.444,14.09,18.067,13.942,17.878z M19.518,12.781h-2.322
	c-0.643,0-1.162,0.521-1.162,1.161c0,0.642,0.52,1.162,1.162,1.162h2.322c0.641,0,1.162-0.521,1.162-1.162
	C20.68,13.302,20.158,12.781,19.518,12.781z M19.518,16.962h-2.322c-0.643,0-1.162,0.52-1.162,1.162c0,0.641,0.52,1.16,1.162,1.16
	h2.322c0.641,0,1.162-0.52,1.162-1.16C20.68,17.481,20.158,16.962,19.518,16.962z M3.024,22.538c0,1.027,0.832,1.857,1.858,1.857
	h18.584c1.027,0,1.859-0.83,1.859-1.857V7.67c0-1.026-0.832-1.858-1.859-1.858h-5.574V4.976c0-0.567-0.457-1.022-1.023-1.022H11.48
	c-0.567,0-1.022,0.456-1.022,1.022v0.836H4.882c-1.026,0-1.858,0.832-1.858,1.858V22.538L3.024,22.538z M6.37,8.136h4.088v0.836
	c0,0.566,0.456,1.021,1.022,1.021h5.389c0.566,0,1.023-0.455,1.023-1.021V8.136h4.088c0.566,0,1.021,0.455,1.021,1.021v11.895
	c0,0.566-0.455,1.021-1.021,1.021H6.37c-0.566,0-1.022-0.455-1.022-1.021V9.157C5.347,8.591,5.803,8.136,6.37,8.136z"/>
</svg>
