<?xml version="1.0" encoding="utf-8"?>
<!-- Generator: Adobe Illustrator 16.0.0, SVG Export Plug-In . SVG Version: 6.00 Build 0)  -->
<!DOCTYPE svg PUBLIC "-//W3C//DTD SVG 1.1//EN" "http://www.w3.org/Graphics/SVG/1.1/DTD/svg11.dtd">
<svg version="1.1" id="圖層_1" xmlns="http://www.w3.org/2000/svg" xmlns:xlink="http://www.w3.org/1999/xlink" x="0px" y="0px"
	 width="28.35px" height="28.35px" viewBox="0 0 28.35 28.35" enable-background="new 0 0 28.35 28.35" xml:space="preserve">
<path fill-rule="evenodd" clip-rule="evenodd" fill="#FFFFFF" d="M14.175,2.78c-6.293,0-11.396,5.104-11.396,11.396
	c0,6.292,5.103,11.395,11.396,11.395c6.292,0,11.396-5.104,11.396-11.395C25.57,7.883,20.467,2.78,14.175,2.78L14.175,2.78z
	 M22.39,18.449c-0.755,1.447-1.883,2.67-3.255,3.543l0.003-0.002c0.559-1.014,1.009-2.215,1.321-3.541H22.39L22.39,18.449z
	 M18.259,18.449c-0.255,0.938-0.59,1.787-0.991,2.514c-0.577,1.045-1.273,1.818-2.024,2.199v-4.713H18.259L18.259,18.449z
	 M13.106,18.449v4.713c-0.754-0.381-1.451-1.154-2.027-2.199c-0.401-0.727-0.737-1.576-0.992-2.514H13.106L13.106,18.449z
	 M7.889,18.449c0.311,1.326,0.764,2.527,1.321,3.541l0.002,0.002c-1.372-0.873-2.497-2.096-3.254-3.543H7.889L7.889,18.449z
	 M5.163,16.312c-0.161-0.688-0.247-1.404-0.247-2.137c0-0.736,0.086-1.45,0.247-2.137h2.362c-0.078,0.693-0.118,1.407-0.118,2.137
	c0,0.73,0.04,1.442,0.118,2.137H5.163L5.163,16.312z M9.674,16.312c-0.085-0.688-0.13-1.402-0.13-2.137
	c0-0.736,0.045-1.45,0.13-2.137h3.433v4.274H9.674L9.674,16.312z M15.243,16.312v-4.274h3.432c0.084,0.687,0.127,1.401,0.127,2.137
	c0,0.735-0.043,1.45-0.127,2.137H15.243L15.243,16.312z M20.824,16.312c0.074-0.695,0.114-1.407,0.114-2.137
	c0-0.729-0.04-1.444-0.114-2.137h2.361c0.161,0.687,0.248,1.401,0.248,2.137c0,0.733-0.087,1.45-0.248,2.137H20.824L20.824,16.312z
	 M5.958,9.902C6.715,8.455,7.84,7.231,9.212,6.358L9.21,6.36C8.652,7.373,8.199,8.573,7.889,9.902H5.958L5.958,9.902z M10.087,9.902
	c0.255-0.941,0.591-1.789,0.992-2.516c0.576-1.045,1.273-1.817,2.027-2.199v4.714H10.087L10.087,9.902z M15.243,9.902V5.188
	c0.751,0.382,1.447,1.154,2.024,2.199c0.401,0.727,0.736,1.575,0.991,2.516H15.243L15.243,9.902z M20.459,9.902
	c-0.312-1.329-0.763-2.529-1.321-3.542l-0.003-0.001c1.372,0.873,2.5,2.096,3.255,3.543H20.459z"/>
</svg>
