<?xml version="1.0" encoding="utf-8"?>
<!-- Generator: Adobe Illustrator 16.0.0, SVG Export Plug-In . SVG Version: 6.00 Build 0)  -->
<!DOCTYPE svg PUBLIC "-//W3C//DTD SVG 1.1//EN" "http://www.w3.org/Graphics/SVG/1.1/DTD/svg11.dtd">
<svg version="1.1" id="圖層_1" xmlns="http://www.w3.org/2000/svg" xmlns:xlink="http://www.w3.org/1999/xlink" x="0px" y="0px"
	 width="28.35px" height="28.35px" viewBox="0 0 28.35 28.35" enable-background="new 0 0 28.35 28.35" xml:space="preserve">
<path fill="#FFFFFF" d="M20.883,5.23h4.472V22c0,1.852-1.501,3.354-3.354,3.354H6.349c-1.853,0-3.354-1.502-3.354-3.354V2.995
	h17.888V5.23z M20.883,7.466V22c0,0.617,0.5,1.119,1.117,1.119c0.618,0,1.119-0.502,1.119-1.119V7.466H20.883z M5.231,5.23V22
	c0,0.617,0.501,1.119,1.118,1.119h12.488c-0.127-0.359-0.191-0.738-0.19-1.119V5.23H5.231z M7.467,14.174h8.943v2.236H7.467V14.174z
	 M7.467,18.646h8.943v2.236H7.467V18.646z M7.467,7.466h8.943v4.473H7.467V7.466z"/>
</svg>
