<?xml version="1.0" encoding="utf-8"?>
<!-- Generator: Adobe Illustrator 16.0.0, SVG Export Plug-In . SVG Version: 6.00 Build 0)  -->
<!DOCTYPE svg PUBLIC "-//W3C//DTD SVG 1.1//EN" "http://www.w3.org/Graphics/SVG/1.1/DTD/svg11.dtd">
<svg version="1.1" id="圖層_1" xmlns="http://www.w3.org/2000/svg" xmlns:xlink="http://www.w3.org/1999/xlink" x="0px" y="0px"
	 width="28.35px" height="28.35px" viewBox="0 0 28.35 28.35" enable-background="new 0 0 28.35 28.35" xml:space="preserve">
<linearGradient id="SVGID_1_" gradientUnits="userSpaceOnUse" x1="14.1753" y1="25.6387" x2="14.1753" y2="2.7114">
	<stop  offset="0" style="stop-color:#040000"/>
	<stop  offset="1" style="stop-color:#575858"/>
</linearGradient>
<path fill-rule="evenodd" clip-rule="evenodd" fill="url(#SVGID_1_)" d="M14.174,2.711c-2.57,0-4.657,1.594-4.657,5.096
	c0,3.506,2.15,6.371,4.657,6.371c2.509,0,4.659-2.865,4.659-6.371C18.833,4.305,16.747,2.711,14.174,2.711L14.174,2.711z
	 M8.759,16.479c1.716-0.623,3.693-0.866,5.415-0.866c1.724,0,3.7,0.243,5.415,0.866c1.506,0.547,2.818,1.389,3.644,2.611
	c0.162,0.23,0.258,0.516,0.258,0.818v4.301c0,0.789-0.643,1.43-1.435,1.43h-7.882h-7.88c-0.791,0-1.434-0.641-1.434-1.43v-4.287
	c-0.003-0.281,0.075-0.561,0.241-0.811C5.925,17.875,7.247,17.027,8.759,16.479z"/>
</svg>
