<?xml version="1.0" encoding="utf-8"?>
<!-- Generator: Adobe Illustrator 16.0.0, SVG Export Plug-In . SVG Version: 6.00 Build 0)  -->
<!DOCTYPE svg PUBLIC "-//W3C//DTD SVG 1.1//EN" "http://www.w3.org/Graphics/SVG/1.1/DTD/svg11.dtd">
<svg version="1.1" id="圖層_1" xmlns="http://www.w3.org/2000/svg" xmlns:xlink="http://www.w3.org/1999/xlink" x="0px" y="0px"
	 width="28.35px" height="28.35px" viewBox="0 0 28.35 28.35" enable-background="new 0 0 28.35 28.35" xml:space="preserve">
<g>
	<path fill="#FFFFFF" d="M12.244,18.338c-0.252-0.217-0.455-0.479-0.571-0.826v-1.669c0.319-0.157,1.137-1.104,1.447-1.997
		c-0.263-0.415-0.468-0.938-0.554-1.617c-0.072-0.565,0.013-1.057,0.186-1.465c-0.13-0.448-0.244-1.011-0.244-1.592
		c0-1.156,0.239-2.214,0.666-3.134c-0.385-0.388-0.881-0.619-1.501-0.619c0,0-0.312-1.251-2.084-1.251
		c-2.909,0-4.587,2.269-4.587,5.004c0,0.92,0.44,1.846,0.44,1.846c-0.177,0.102-0.469,0.426-0.396,1
		c0.137,1.068,0.601,1.341,0.896,1.363c0.113,0.999,1.187,2.275,1.562,2.462v1.669c-0.834,2.501-5.838,0.833-5.838,6.67h7.506
		C9.172,20.699,10.726,19.17,12.244,18.338z"/>
	<g>
		<path fill="#FFFFFF" d="M20.848,17.512v-1.669c0.374-0.187,1.448-1.463,1.561-2.461c0.297-0.022,0.76-0.295,0.896-1.363
			c0.072-0.575-0.22-0.898-0.396-1c0,0,0.439-0.837,0.439-1.847c0-2.024-0.794-3.753-2.501-3.753c0,0-0.311-1.25-2.085-1.25
			c-2.909-0.001-4.588,2.268-4.588,5.003c0,0.92,0.44,1.846,0.44,1.846c-0.176,0.102-0.469,0.426-0.396,1
			c0.138,1.068,0.601,1.341,0.897,1.363c0.111,0.999,1.186,2.275,1.56,2.462v1.669c-0.832,2.501-5.837,0.833-5.837,6.67h15.844
			C26.684,18.345,21.681,20.013,20.848,17.512z"/>
	</g>
</g>
</svg>
