<?xml version="1.0" encoding="utf-8"?>
<!-- Generator: Adobe Illustrator 16.0.0, SVG Export Plug-In . SVG Version: 6.00 Build 0)  -->
<!DOCTYPE svg PUBLIC "-//W3C//DTD SVG 1.1//EN" "http://www.w3.org/Graphics/SVG/1.1/DTD/svg11.dtd">
<svg version="1.1" id="圖層_1" xmlns="http://www.w3.org/2000/svg" xmlns:xlink="http://www.w3.org/1999/xlink" x="0px" y="0px"
	 width="28.35px" height="28.35px" viewBox="0 0 28.35 28.35" enable-background="new 0 0 28.35 28.35" xml:space="preserve">
<g id="icons">
	<path id="settings" fill="#FFFFFF" d="M24.985,16.809l-1.316-0.77c-1.427-0.877-1.427-2.96,0-3.838l1.316-0.769
		c1.097-0.657,1.426-1.974,0.768-2.961l-1.097-1.865c-0.659-1.096-1.974-1.424-2.962-0.768l-1.316,0.768
		c-1.427,0.878-3.291-0.218-3.291-1.863V3.207c0-1.206-0.986-2.194-2.193-2.194H12.7c-1.207,0-2.194,0.988-2.194,2.194v1.426
		c0,1.645-1.864,2.743-3.291,1.864L5.899,5.839C4.803,5.182,3.487,5.62,2.938,6.606L1.842,8.472c-0.55,1.098-0.22,2.414,0.768,3.071
		l1.315,0.768c1.427,0.768,1.427,2.96,0,3.728l-1.315,0.77c-1.098,0.656-1.427,1.975-0.768,2.961l1.095,1.867
		c0.659,1.094,1.974,1.424,2.961,0.768l1.316-0.658c1.426-0.881,3.291,0.217,3.291,1.861v1.539c0,1.203,0.987,2.189,2.194,2.189
		h2.194c1.207,0,2.193-0.986,2.193-2.189v-1.43c0-1.643,1.864-2.742,3.291-1.863l1.316,0.768c1.099,0.656,2.414,0.219,2.962-0.768
		l1.097-1.865C26.3,18.783,25.973,17.465,24.985,16.809z M13.796,18.562c-2.412,0-4.387-1.977-4.387-4.387
		c0-2.413,1.975-4.387,4.387-4.387c2.414,0,4.389,1.974,4.389,4.387C18.185,16.586,16.21,18.562,13.796,18.562z"/>
</g>
</svg>
