<?xml version="1.0" encoding="utf-8"?>
<!-- Generator: Adobe Illustrator 16.0.0, SVG Export Plug-In . SVG Version: 6.00 Build 0)  -->
<!DOCTYPE svg PUBLIC "-//W3C//DTD SVG 1.1//EN" "http://www.w3.org/Graphics/SVG/1.1/DTD/svg11.dtd">
<svg version="1.1" id="圖層_1" xmlns="http://www.w3.org/2000/svg" xmlns:xlink="http://www.w3.org/1999/xlink" x="0px" y="0px"
	 width="28.35px" height="28.35px" viewBox="0 0 28.35 28.35" enable-background="new 0 0 28.35 28.35" xml:space="preserve">
<path fill-rule="evenodd" clip-rule="evenodd" fill="#FFFFFF" d="M6.077,12.444h16.196c1.125,0,2.047,0.724,2.047,1.604v11.021
	c0,0.882-0.922,1.601-2.047,1.601H6.077c-1.125,0-2.048-0.719-2.048-1.601V14.048C4.029,13.168,4.952,12.444,6.077,12.444
	L6.077,12.444z M14.281,1.68L14.281,1.68c2.217,0,4.227,0.708,5.676,1.852c1.461,1.138,2.363,2.712,2.363,4.449v3.409h-0.047h-3.994
	V7.98c0-0.86-0.449-1.647-1.174-2.214c-0.729-0.566-1.725-0.923-2.825-0.923l0,0c-1.096,0-2.092,0.351-2.816,0.923
	c-0.729,0.566-1.178,1.354-1.178,2.214v3.409H6.25V7.98c0-1.736,0.904-3.311,2.355-4.449C10.066,2.387,12.073,1.68,14.281,1.68
	L14.281,1.68z M14.371,15.969c-1.091,0-1.975,0.692-1.975,1.542c0,0.619,0.454,1.149,1.123,1.396l-0.643,3.084h1.466h1.465
	l-0.641-3.063c0.689-0.24,1.172-0.78,1.172-1.416C16.338,16.661,15.459,15.969,14.371,15.969z"/>
</svg>
