<svg enable-background="new 0 0 28.35 28.35" height="28.35" viewBox="0 0 28.35 28.35" width="28.35" xmlns="http://www.w3.org/2000/svg"><path clip-rule="evenodd" d="m5.117 2.098h18.115c1.66 0 3.02 1.359 3.02 3.02v18.112c0 1.661-1.359 3.022-3.02 3.022h-18.115c-1.659 0-3.02-1.361-3.02-3.022v-18.113c0-1.66 1.361-3.019 3.02-3.019zm.443 10.718c-.294.292-.294.772 0 1.066l6.572 6.57c.294.294.773.294 1.068 0l9.589-9.588c.293-.298.293-.774 0-1.069l-2.262-2.263c-.297-.296-.775-.296-1.07 0l-6.792 6.794-3.773-3.775c-.294-.296-.771-.296-1.066 0z" fill="#fff" fill-rule="evenodd"/></svg>