<?xml version="1.0" encoding="utf-8"?>
<!-- Generator: Adobe Illustrator 16.0.0, SVG Export Plug-In . SVG Version: 6.00 Build 0)  -->
<!DOCTYPE svg PUBLIC "-//W3C//DTD SVG 1.1//EN" "http://www.w3.org/Graphics/SVG/1.1/DTD/svg11.dtd">
<svg version="1.1" id="圖層_1" xmlns="http://www.w3.org/2000/svg" xmlns:xlink="http://www.w3.org/1999/xlink" x="0px" y="0px"
	 width="28.35px" height="28.35px" viewBox="0 0 28.35 28.35" enable-background="new 0 0 28.35 28.35" xml:space="preserve">
<path fill="#FFFFFF" d="M26.167,20.925c1.541,1.54,1.541,3.947,0,5.487c-1.54,1.542-3.947,1.542-5.487,0l-8.185-8.086
	c-0.193-0.193-0.386-0.481-0.578-0.771c-3.081,0.866-6.451-0.097-8.569-2.697l-0.481-0.672C0.749,11.586,0.459,8.024,2,5.232
	c0,0,0,0.096,0.096,0.096l3.755,4.814c1.156,1.444,3.177,1.637,4.622,0.481c1.444-1.155,1.637-3.177,0.481-4.622L7.199,1.188
	L7.103,1.091c3.082-0.866,6.451,0.097,8.57,2.696l0.481,0.674c1.926,2.311,2.31,5.392,1.347,7.991
	c0.193,0.097,0.29,0.193,0.481,0.385L26.167,20.925z M23.471,25.162c0.771,0,1.349-0.577,1.349-1.349
	c0-0.771-0.578-1.349-1.349-1.349c-0.77,0-1.347,0.578-1.347,1.349C22.124,24.486,22.701,25.162,23.471,25.162z"/>
</svg>
