<?xml version="1.0" encoding="utf-8"?>
<!-- Generator: Adobe Illustrator 16.0.0, SVG Export Plug-In . SVG Version: 6.00 Build 0)  -->
<!DOCTYPE svg PUBLIC "-//W3C//DTD SVG 1.1//EN" "http://www.w3.org/Graphics/SVG/1.1/DTD/svg11.dtd">
<svg version="1.1" id="圖層_1" xmlns="http://www.w3.org/2000/svg" xmlns:xlink="http://www.w3.org/1999/xlink" x="0px" y="0px"
	 width="28.35px" height="28.35px" viewBox="0 0 28.35 28.35" enable-background="new 0 0 28.35 28.35" xml:space="preserve">
<g id="Livello_1_1_">
</g>
<path fill-rule="evenodd" clip-rule="evenodd" fill="#FFFFFF" d="M14.175,7.219L5.023,16.37v7.321
	c-0.01,0.806,0.668,1.467,1.466,1.467h5.49v-6.222c0-0.404,0.329-0.735,0.732-0.735h2.929c0.402,0,0.731,0.331,0.731,0.735v6.222
	h5.491c0.803,0.01,1.464-0.666,1.464-1.465V16.37L14.175,7.219L14.175,7.219z M14.954,3.518l10.61,10.609
	c0.2,0.2,0.325,0.476,0.325,0.782c0,0.604-0.492,1.098-1.099,1.098c-0.305,0-0.58-0.127-0.78-0.325l-9.836-9.837l-9.836,9.837
	c-0.199,0.198-0.477,0.325-0.78,0.325c-0.606,0-1.099-0.493-1.099-1.098c0-0.306,0.124-0.582,0.325-0.782L13.394,3.518
	c0.2-0.202,0.477-0.327,0.781-0.327S14.756,3.316,14.954,3.518z"/>
</svg>
