<?xml version="1.0" encoding="utf-8"?>
<!-- Generator: Adobe Illustrator 16.0.0, SVG Export Plug-In . SVG Version: 6.00 Build 0)  -->
<!DOCTYPE svg PUBLIC "-//W3C//DTD SVG 1.1//EN" "http://www.w3.org/Graphics/SVG/1.1/DTD/svg11.dtd">
<svg version="1.1" id="圖層_1" xmlns="http://www.w3.org/2000/svg" xmlns:xlink="http://www.w3.org/1999/xlink" x="0px" y="0px"
	 width="28.35px" height="28.35px" viewBox="0 0 28.35 28.35" enable-background="new 0 0 28.35 28.35" xml:space="preserve">
<path fill="#FFFFFF" d="M21.319,3.6l3.432,3.432c0.267,0.266,0.401,0.616,0.401,0.966c0,0.354-0.135,0.707-0.401,0.973l-1.918,1.917
	l-5.37-5.372L19.379,3.6c0.269-0.266,0.618-0.402,0.971-0.402C20.699,3.198,21.051,3.334,21.319,3.6L21.319,3.6z M7.112,15.751
	l5.489,5.487l9.323-9.321l-0.889-0.888l-0.97-0.971l-1.773-1.773l-0.97-0.973l-0.889-0.886L7.112,15.751L7.112,15.751z
	 M3.239,24.235l0.766-2.106l2.217,2.217l-2.106,0.767l0,0c-0.145,0.051-0.308,0.054-0.465,0C3.294,24.98,3.11,24.588,3.239,24.235
	L3.239,24.235z M4.522,20.705l1.445-3.971c0.012-0.047,0.029-0.093,0.053-0.137l5.729,5.729c-0.028,0.016-0.056,0.027-0.086,0.039
	l-4.021,1.462L4.522,20.705z"/>
</svg>
