<?xml version="1.0" encoding="utf-8"?>
<!-- Generator: Adobe Illustrator 16.0.0, SVG Export Plug-In . SVG Version: 6.00 Build 0)  -->
<!DOCTYPE svg PUBLIC "-//W3C//DTD SVG 1.1//EN" "http://www.w3.org/Graphics/SVG/1.1/DTD/svg11.dtd">
<svg version="1.1" id="圖層_1" xmlns="http://www.w3.org/2000/svg" xmlns:xlink="http://www.w3.org/1999/xlink" x="0px" y="0px"
	 width="146px" height="146px" viewBox="0 0 146 146" enable-background="new 0 0 146 146" xml:space="preserve">
<g>
	<g>
		<path fill="#3A549C" d="M53.25,124.752c-12.695-4.879-13.476-32.907-1.743-62.606C58.194,45.223,67.501,31.419,76.62,23.57
			c-8.494,5.993-17.149,13.061-25.599,21.073C13.893,79.85-5.16,119.719,8.464,133.693c8.921,9.15,29.64,4.928,53.303-8.957
			C58.72,125.686,55.836,125.746,53.25,124.752z"/>
		<path fill="#AA1166" d="M136.723,10.402c-9.558-9.801-32.654-4.245-58.405,12.086c4.051-1.898,7.887-2.361,11.229-1.078
			c12.693,4.878,13.474,32.908,1.74,62.607c-6.214,15.728-14.691,28.765-23.176,36.829c8.64-6.059,17.455-13.235,26.055-21.392
			C131.296,64.246,150.35,24.376,136.723,10.402z"/>
	</g>
	<circle fill="#3A549C" cx="33.784" cy="32.02" r="18"/>
	<circle fill="#AA1166" cx="110.784" cy="114.52" r="18"/>
</g>
</svg>
