<?xml version="1.0" encoding="utf-8"?>
<!-- Generator: Adobe Illustrator 16.0.0, SVG Export Plug-In . SVG Version: 6.00 Build 0)  -->
<!DOCTYPE svg PUBLIC "-//W3C//DTD SVG 1.1//EN" "http://www.w3.org/Graphics/SVG/1.1/DTD/svg11.dtd">
<svg version="1.1" id="圖層_1" xmlns="http://www.w3.org/2000/svg" xmlns:xlink="http://www.w3.org/1999/xlink" x="0px" y="0px"
	 width="100px" height="40px" viewBox="0 0 100 40" enable-background="new 0 0 100 40" xml:space="preserve">
<text transform="matrix(1 0 0 1 26.3252 36.9189)" fill="#727272" font-family="'ArialMT'" font-size="12">col-4-4-4</text>
<g>
	<rect x="1.831" y="1.957" fill="#E2E2E2" width="30" height="22.971"/>
	<path fill="#727272" d="M31.33,2.457v21.971h-29V2.457H31.33 M32.33,1.457h-31v23.971h31V1.457L32.33,1.457z"/>
</g>
<g>
	<rect x="35" y="1.957" fill="#E2E2E2" width="29.999" height="22.971"/>
	<path fill="#727272" d="M64.499,2.457v21.971H35.5V2.457H64.499 M65.499,1.457H34.5v23.971h30.999V1.457L65.499,1.457z"/>
</g>
<g>
	<rect x="68.182" y="1.957" fill="#E2E2E2" width="29.998" height="22.971"/>
	<path fill="#727272" d="M97.68,2.457v21.971H68.682V2.457H97.68 M98.68,1.457H67.682v23.971H98.68V1.457L98.68,1.457z"/>
</g>
</svg>
