<?xml version="1.0" encoding="utf-8"?>
<!-- Generator: Adobe Illustrator 16.0.0, SVG Export Plug-In . SVG Version: 6.00 Build 0)  -->
<!DOCTYPE svg PUBLIC "-//W3C//DTD SVG 1.1//EN" "http://www.w3.org/Graphics/SVG/1.1/DTD/svg11.dtd">
<svg version="1.1" id="圖層_1" xmlns="http://www.w3.org/2000/svg" xmlns:xlink="http://www.w3.org/1999/xlink" x="0px" y="0px"
	 width="100px" height="40px" viewBox="0 0 100 40" enable-background="new 0 0 100 40" xml:space="preserve">
<text transform="matrix(1 0 0 1 20.9897 36.7773)" fill="#727272" font-family="'ArialMT'" font-size="12">col-3-3-3-3</text>
<g>
	<rect x="1.831" y="1.497" fill="#E2E2E2" width="21.585" height="22.971"/>
	<path fill="#727272" d="M22.916,1.997v21.971H2.331V1.997H22.916 M23.916,0.997H1.331v23.971h22.585V0.997L23.916,0.997z"/>
</g>
<g>
	<rect x="26.825" y="1.497" fill="#E2E2E2" width="21.584" height="22.971"/>
	<path fill="#727272" d="M47.909,1.997v21.971H27.325V1.997H47.909 M48.909,0.997H26.325v23.971h22.584V0.997L48.909,0.997z"/>
</g>
<g>
	<rect x="51.601" y="1.497" fill="#E2E2E2" width="21.584" height="22.971"/>
	<path fill="#727272" d="M72.685,1.997v21.971H52.101V1.997H72.685 M73.685,0.997H51.101v23.971h22.584V0.997L73.685,0.997z"/>
</g>
<g>
	<rect x="76.595" y="1.497" fill="#E2E2E2" width="21.584" height="22.971"/>
	<path fill="#727272" d="M97.679,1.997v21.971H77.095V1.997H97.679 M98.679,0.997H76.095v23.971h22.584V0.997L98.679,0.997z"/>
</g>
</svg>
