<?xml version="1.0" encoding="utf-8"?>
<!-- Generator: Adobe Illustrator 16.0.0, SVG Export Plug-In . SVG Version: 6.00 Build 0)  -->
<!DOCTYPE svg PUBLIC "-//W3C//DTD SVG 1.1//EN" "http://www.w3.org/Graphics/SVG/1.1/DTD/svg11.dtd">
<svg version="1.1" id="圖層_1" xmlns="http://www.w3.org/2000/svg" xmlns:xlink="http://www.w3.org/1999/xlink" x="0px" y="0px"
	 width="100px" height="40px" viewBox="0 0 100 40" enable-background="new 0 0 100 40" xml:space="preserve">
<rect x="3.364" y="2.689" fill="#26C1F7" width="93.271" height="33.935"/>
<polyline fill="#FFFFFF" points="10.417,22.82 6.597,20 10.417,17.18 "/>
<polyline fill="#FFFFFF" points="90.115,17.18 93.935,20 90.115,22.82 "/>
<path fill-rule="evenodd" clip-rule="evenodd" fill="#FFFFFF" d="M38.48,7.504h23.042c0.903,0,1.643,0.741,1.643,1.647v19.746
	c0,0.908-0.739,1.647-1.643,1.647H38.48c-0.905,0-1.646-0.739-1.646-1.647V9.151C36.835,8.245,37.575,7.504,38.48,7.504L38.48,7.504
	z M59.053,17.379l-3.292-3.291l-8.229,8.227l-4.114-4.115l-2.468,2.469v5.762h18.104V17.379L59.053,17.379z M39.304,9.972v18.104
	h21.393V9.972H39.304z"/>
</svg>
